# xmcd
#
# Track frame offsets: 
#        150
#        14160
#        27720
#        42715
#        58405
#        71297
#        87207
#        100475
#        111577
#        124257
#        139710
#        154550
#        167905
#
# Disc length: 2385 seconds
#
# Revision: 0
# Processed by: cddbd v1.5.2PL0 Copyright (c) Steve Scherf et al.
# Submitted via: ExactAudioCopyFreeDBPlugin 1.0
#
DISCID=c5094f0d
DTITLE=Don Williams - Audiophile Selection
DYEAR=2011
DGENRE=Country
TTITLE0=I'm Just A Country Boy
TTITLE1=Where Are You
TTITLE2=When I'm With You
TTITLE3=All I'm Missing Is You
TTITLE4=You're My Best Friend
TTITLE5=Till The Rivers All Run Dry
TTITLE6=I'm Getting Good At Missing You
TTITLE7=Turn Out The Lights (And Love Me Tonight)
TTITLE8=Some Broken Hearts Never Mind
TTITLE9=Don't You Think It's Time
TTITLE10=My Woman's Love
TTITLE11=Goodbye Isn't Really Good At All
TTITLE12=It Must Be Love
EXTD=
EXTT0=
EXTT1=
EXTT2=
EXTT3=
EXTT4=
EXTT5=
EXTT6=
EXTT7=
EXTT8=
EXTT9=
EXTT10=
EXTT11=
EXTT12=
PLAYORDER=
